<svg width="150" height="33" viewBox="0 0 150 33" fill="none" xmlns="http://www.w3.org/2000/svg">
<path fill-rule="evenodd" clip-rule="evenodd" d="M4.45188 0.234375C6.72236 0.234375 8.56294 2.07496 8.56294 4.34544L8.56295 28.5791C8.56295 30.8495 6.72236 32.6901 4.45188 32.6901C2.18141 32.6901 0.340822 30.8495 0.340822 28.5791L0.34082 4.34544C0.34082 2.07496 2.18141 0.234375 4.45188 0.234375Z" fill="#7F00FF"/>
<path fill-rule="evenodd" clip-rule="evenodd" d="M16.5967 0.234375C18.8671 0.234375 20.7077 2.07496 20.7077 4.34544L20.7077 28.5791C20.7077 30.8495 18.8671 32.6901 16.5967 32.6901C14.3262 32.6901 12.4856 30.8495 12.4856 28.5791L12.4856 4.34544C12.4856 2.07496 14.3262 0.234375 16.5967 0.234375Z" fill="#7F00FF"/>
<path fill-rule="evenodd" clip-rule="evenodd" d="M28.7412 0.234375C31.0117 0.234375 32.8523 2.07496 32.8523 4.34544L32.8523 28.5791C32.8523 30.8495 31.0117 32.6901 28.7412 32.6901C26.4707 32.6901 24.6301 30.8495 24.6301 28.5791L24.6301 4.34544C24.6301 2.07496 26.4707 0.234375 28.7412 0.234375Z" fill="#7F00FF"/>
<path fill-rule="evenodd" clip-rule="evenodd" d="M37.1797 16.4619C37.1797 7.48406 44.4577 0.206055 53.4356 0.206055H56.9305C59.2009 0.206055 61.0415 2.04664 61.0415 4.31712C61.0415 6.58759 59.2009 8.42818 56.9305 8.42818H53.4356C48.9986 8.42818 45.4018 12.025 45.4018 16.4619C45.4018 20.8988 48.9986 24.4957 53.4356 24.4957H56.2855V18.8843C56.2855 16.6139 58.1261 14.7733 60.3966 14.7733C62.667 14.7733 64.5076 16.6139 64.5076 18.8843V28.6067C64.5076 30.8772 62.667 32.7178 60.3966 32.7178H53.4356C44.4577 32.7178 37.1797 25.4398 37.1797 16.4619Z" fill="white"/>
<path fill-rule="evenodd" clip-rule="evenodd" d="M78.1386 0.235351C80.4091 0.235351 82.2497 2.07594 82.2497 4.34641L82.2497 28.6069C82.2497 30.8774 80.4091 32.7179 78.1387 32.7179C75.8682 32.7179 74.0276 30.8774 74.0276 28.6069L74.0276 4.34641C74.0276 2.07594 75.8682 0.235351 78.1386 0.235351Z" fill="white"/>
<path fill-rule="evenodd" clip-rule="evenodd" d="M90.9045 4.31698C90.9045 6.58738 89.064 8.42791 86.7936 8.42791L69.4844 8.42791C67.214 8.42791 65.3735 6.58738 65.3735 4.31698C65.3735 2.04658 67.214 0.206055 69.4844 0.206055L86.7936 0.206055C89.064 0.206055 90.9045 2.04658 90.9045 4.31698Z" fill="white"/>
<path fill-rule="evenodd" clip-rule="evenodd" d="M105.53 8.44283C102.95 8.44283 100.858 10.5347 100.858 13.1151V28.5934C100.858 30.8639 99.0173 32.7044 96.7468 32.7044C94.4763 32.7044 92.6357 30.8639 92.6357 28.5934V13.1151C92.6357 5.99371 98.4088 0.220703 105.53 0.220703C112.651 0.220703 118.424 5.99371 118.424 13.1151V28.5934C118.424 30.8639 116.584 32.7044 114.313 32.7044C112.043 32.7044 110.202 30.8639 110.202 28.5934V13.1151C110.202 10.5347 108.111 8.44283 105.53 8.44283Z" fill="white"/>
<path fill-rule="evenodd" clip-rule="evenodd" d="M149.836 4.31698C149.836 6.58738 147.995 8.42791 145.725 8.42791L126.43 8.42791C124.16 8.42791 122.319 6.58738 122.319 4.31698C122.319 2.04658 124.16 0.206055 126.43 0.206055L145.725 0.206055C147.995 0.206055 149.836 2.04658 149.836 4.31698Z" fill="white"/>
<path fill-rule="evenodd" clip-rule="evenodd" d="M149.836 16.4615C149.836 18.7319 147.995 20.5724 145.725 20.5724L126.43 20.5724C124.16 20.5724 122.319 18.7319 122.319 16.4615C122.319 14.1911 124.16 12.3506 126.43 12.3506L145.725 12.3506C147.995 12.3506 149.836 14.1911 149.836 16.4615Z" fill="white"/>
<path fill-rule="evenodd" clip-rule="evenodd" d="M149.836 28.606C149.836 30.8764 147.995 32.717 145.725 32.717L126.43 32.717C124.16 32.717 122.319 30.8764 122.319 28.606C122.319 26.3356 124.16 24.4951 126.43 24.4951L145.725 24.4951C147.995 24.4951 149.836 26.3356 149.836 28.606Z" fill="white"/>
</svg>
