<svg width="19" height="17" viewBox="0 0 19 17" fill="none" xmlns="http://www.w3.org/2000/svg">
<path fill-rule="evenodd" clip-rule="evenodd" d="M16.9454 12.9669C16.9454 14.1263 16.0018 15.0698 14.8424 15.0698H4.32768C3.16826 15.0698 2.22474 14.1263 2.22474 12.9669V5.95706C2.22474 4.79763 3.16826 3.85411 4.32768 3.85411H4.60878C5.21232 3.85411 5.78643 3.56531 6.14673 3.08093L7.14843 1.75117H12.0238L12.0455 1.76168L13.036 3.08584C13.3956 3.56671 13.969 3.85411 14.5697 3.85411H14.8424C16.0018 3.85411 16.9454 4.79763 16.9454 5.95706V12.9669ZM14.8424 2.45207H14.5697C14.4078 2.45207 14.255 2.37566 14.1582 2.24598L13.1677 0.921823C12.8986 0.561519 12.4745 0.349121 12.0237 0.349121H7.14842C6.69698 0.349121 6.27149 0.562921 6.00231 0.925328L5.02094 2.24458C4.9249 2.37496 4.77139 2.45207 4.60876 2.45207H4.32766C2.39155 2.45207 0.822754 4.02086 0.822754 5.95698V12.9668C0.822754 14.9022 2.39155 16.4717 4.32766 16.4717H14.8424C16.7785 16.4717 18.3473 14.9022 18.3473 12.9668V5.95698C18.3473 4.02086 16.7785 2.45207 14.8424 2.45207ZM9.58505 12.2656C7.84591 12.2656 6.43063 10.8503 6.43063 9.11114C6.43063 7.372 7.84591 5.95672 9.58505 5.95672C11.3242 5.95672 12.7395 7.372 12.7395 9.11114C12.7395 10.8503 11.3242 12.2656 9.58505 12.2656ZM9.58505 4.55475C7.07273 4.55475 5.02866 6.59882 5.02866 9.11114C5.02866 11.6235 7.07273 13.6675 9.58505 13.6675C12.0974 13.6675 14.1414 11.6235 14.1414 9.11114C14.1414 6.59882 12.0974 4.55475 9.58505 4.55475Z" fill="#7F00FF" style="mix-blend-mode:color-burn"/>
<path fill-rule="evenodd" clip-rule="evenodd" d="M16.9454 12.9669C16.9454 14.1263 16.0018 15.0698 14.8424 15.0698H4.32768C3.16826 15.0698 2.22474 14.1263 2.22474 12.9669V5.95706C2.22474 4.79763 3.16826 3.85411 4.32768 3.85411H4.60878C5.21232 3.85411 5.78643 3.56531 6.14673 3.08093L7.14843 1.75117H12.0238L12.0455 1.76168L13.036 3.08584C13.3956 3.56671 13.969 3.85411 14.5697 3.85411H14.8424C16.0018 3.85411 16.9454 4.79763 16.9454 5.95706V12.9669ZM14.8424 2.45207H14.5697C14.4078 2.45207 14.255 2.37566 14.1582 2.24598L13.1677 0.921823C12.8986 0.561519 12.4745 0.349121 12.0237 0.349121H7.14842C6.69698 0.349121 6.27149 0.562921 6.00231 0.925328L5.02094 2.24458C4.9249 2.37496 4.77139 2.45207 4.60876 2.45207H4.32766C2.39155 2.45207 0.822754 4.02086 0.822754 5.95698V12.9668C0.822754 14.9022 2.39155 16.4717 4.32766 16.4717H14.8424C16.7785 16.4717 18.3473 14.9022 18.3473 12.9668V5.95698C18.3473 4.02086 16.7785 2.45207 14.8424 2.45207ZM9.58505 12.2656C7.84591 12.2656 6.43063 10.8503 6.43063 9.11114C6.43063 7.372 7.84591 5.95672 9.58505 5.95672C11.3242 5.95672 12.7395 7.372 12.7395 9.11114C12.7395 10.8503 11.3242 12.2656 9.58505 12.2656ZM9.58505 4.55475C7.07273 4.55475 5.02866 6.59882 5.02866 9.11114C5.02866 11.6235 7.07273 13.6675 9.58505 13.6675C12.0974 13.6675 14.1414 11.6235 14.1414 9.11114C14.1414 6.59882 12.0974 4.55475 9.58505 4.55475Z" fill="#7F00FF"/>
</svg>
