<svg width="48" height="47" viewBox="0 0 48 47" fill="none" xmlns="http://www.w3.org/2000/svg">
<g clip-path="url(#clip0_409_1926)">
<path d="M37.4866 0.583496H10.5719C8.02344 0.586549 5.58026 1.60026 3.77825 3.40227C1.97624 5.20428 0.962525 7.64746 0.959473 10.1959L0.959473 37.1106C0.962525 39.659 1.97624 42.1022 3.77825 43.9042C5.58026 45.7062 8.02344 46.7199 10.5719 46.723H37.4866C40.035 46.7199 42.4782 45.7062 44.2802 43.9042C46.0822 42.1022 47.0959 39.659 47.0989 37.1106V10.1959C47.0959 7.64746 46.0822 5.20428 44.2802 3.40227C42.4782 1.60026 40.035 0.586549 37.4866 0.583496ZM10.5719 4.42845H37.4866C39.0162 4.42845 40.4831 5.03609 41.5648 6.1177C42.6464 7.1993 43.254 8.66627 43.254 10.1959V37.1106C43.2507 37.967 43.0535 38.8116 42.6772 39.581L25.0616 21.9653C24.169 21.0724 23.1092 20.3642 21.9428 19.8809C20.7764 19.3977 19.5262 19.149 18.2637 19.149C17.0012 19.149 15.751 19.3977 14.5846 19.8809C13.4182 20.3642 12.3584 21.0724 11.4658 21.9653L4.80443 28.6248V10.1959C4.80443 8.66627 5.41207 7.1993 6.49367 6.1177C7.57528 5.03609 9.04224 4.42845 10.5719 4.42845ZM10.5719 42.878C9.04224 42.878 7.57528 42.2704 6.49367 41.1888C5.41207 40.1072 4.80443 38.6402 4.80443 37.1106V34.0615L14.1823 24.6837C14.7179 24.1477 15.3538 23.7226 16.0538 23.4325C16.7538 23.1424 17.5041 22.9931 18.2618 22.9931C19.0195 22.9931 19.7698 23.1424 20.4697 23.4325C21.1697 23.7226 21.8057 24.1477 22.3413 24.6837L39.9569 42.3013C39.1876 42.6775 38.343 42.8747 37.4866 42.878H10.5719Z" fill="#CCCDD4"/>
<path d="M31.7189 20.7694C33.0497 20.7694 34.3506 20.3747 35.4572 19.6354C36.5637 18.896 37.4261 17.8451 37.9354 16.6156C38.4447 15.3861 38.5779 14.0332 38.3183 12.728C38.0587 11.4228 37.4178 10.2238 36.4768 9.2828C35.5358 8.34178 34.3368 7.70093 33.0316 7.4413C31.7264 7.18168 30.3735 7.31493 29.144 7.8242C27.9145 8.33348 26.8636 9.19591 26.1242 10.3024C25.3849 11.409 24.9902 12.7099 24.9902 14.0407C24.9902 15.8252 25.6991 17.5367 26.961 18.7986C28.2229 20.0605 29.9344 20.7694 31.7189 20.7694ZM31.7189 11.157C32.2893 11.157 32.8468 11.3261 33.321 11.643C33.7952 11.9598 34.1649 12.4102 34.3831 12.9371C34.6014 13.4641 34.6585 14.0439 34.5472 14.6033C34.4359 15.1627 34.1613 15.6765 33.758 16.0798C33.3547 16.4831 32.8409 16.7577 32.2815 16.869C31.7221 16.9803 31.1423 16.9232 30.6154 16.7049C30.0884 16.4866 29.6381 16.117 29.3212 15.6428C29.0043 15.1686 28.8352 14.611 28.8352 14.0407C28.8352 13.2759 29.139 12.5424 29.6798 12.0016C30.2206 11.4608 30.9541 11.157 31.7189 11.157Z" fill="#CCCDD4"/>
</g>
<defs>
<clipPath id="clip0_409_1926">
<rect width="46.1395" height="46.1395" fill="white" transform="translate(0.959473 0.583496)"/>
</clipPath>
</defs>
</svg>
