<svg width="22" height="22" viewBox="0 0 22 22" fill="none" xmlns="http://www.w3.org/2000/svg">
<path fill-rule="evenodd" clip-rule="evenodd" d="M20.9254 19.0005L15.2913 13.3642C16.3013 11.9868 16.8423 10.3215 16.8347 8.61356C16.8155 4.15518 13.2094 0.543899 8.75108 0.518148C6.6175 0.508495 4.56869 1.35254 3.06104 2.86226C1.5534 4.37197 0.712167 6.42194 0.724749 8.5555C0.744018 13.0143 4.35038 16.6259 8.80914 16.6517C10.5241 16.6591 12.1954 16.1118 13.5738 15.0914L13.5797 15.087L19.2086 20.7188C19.5129 21.0381 19.9664 21.1674 20.3934 21.0565C20.8203 20.9456 21.1536 20.612 21.2641 20.185C21.3746 19.758 21.245 19.3046 20.9254 19.0005ZM8.80553 15.0379C5.23871 15.0174 2.35367 12.1284 2.33801 8.56158C2.32839 6.85496 3.00143 5.21531 4.20732 4.00763C5.4132 2.79994 7.05185 2.12446 8.75849 2.13155C12.3253 2.15207 15.2103 5.04105 15.226 8.60789C15.2356 10.3145 14.5626 11.9542 13.3567 13.1618C12.1508 14.3695 10.5122 15.045 8.80553 15.0379Z" fill="black" fill-opacity="0.36"/>
</svg>
